HIERARCHY
ROOT Root
{
  OFFSET 0.0 0.0 0.0
  CHANNELS 6 Xposition Yposition Zposition Zrotation Yrotation Xrotation
  JOINT Hips
  {
    OFFSET 0.0 100.0 0.0
    CHANNELS 6 Xposition Yposition Zposition Zrotation Yrotation Xrotation
    JOINT Spine1
    {
      OFFSET 5.003913 -0.037094 -0.013727
      CHANNELS 3 Zrotation Yrotation Xrotation
      JOINT Spine2
      {
        OFFSET 7.125363 -1e-06 0.0
        CHANNELS 3 Zrotation Yrotation Xrotation
        JOINT Chest
        {
          OFFSET 7.594027 1e-06 0.0
          CHANNELS 3 Zrotation Yrotation Xrotation
          JOINT Neck1
          {
            OFFSET 26.313086 -0.460272 -0.181672
            CHANNELS 3 Zrotation Yrotation Xrotation
            JOINT Neck2
            {
              OFFSET 8.045911 0.0 0.0
              CHANNELS 3 Zrotation Yrotation Xrotation
              JOINT Head
              {
                OFFSET 6.432774 0.0 0.0
                CHANNELS 3 Zrotation Yrotation Xrotation
                JOINT HeadEnd
                {
                  OFFSET 16.169773 0.06451 0.00362
                  CHANNELS 3 Zrotation Yrotation Xrotation
                }
                JOINT Jaw
                {
                  OFFSET 0.108741 3.12938 0.002639
                  CHANNELS 3 Zrotation Yrotation Xrotation
                }
                JOINT LeftEye
                {
                  OFFSET 4.45173 8.166359 3.206392
                  CHANNELS 3 Zrotation Yrotation Xrotation
                }
                JOINT RightEye
                {
                  OFFSET 4.436895 8.135758 -3.222429
                  CHANNELS 3 Zrotation Yrotation Xrotation
                }
              }
            }
          }
          JOINT LeftShoulder
          {
            OFFSET 23.218927 5.195579 1.621656
            CHANNELS 3 Zrotation Yrotation Xrotation
            JOINT LeftArm
            {
              OFFSET 15.902118 2e-06 -2e-06
              CHANNELS 3 Zrotation Yrotation Xrotation
              JOINT LeftForeArm
              {
                OFFSET 28.739307 0.0 -1e-06
                CHANNELS 3 Zrotation Yrotation Xrotation
                JOINT LeftHand
                {
                  OFFSET 27.093981 -4e-06 0.0
                  CHANNELS 3 Zrotation Yrotation Xrotation
                  JOINT LeftHandThumb1
                  {
                    OFFSET 2.276781 3.380274 0.83384
                    CHANNELS 3 Zrotation Yrotation Xrotation
                    JOINT LeftHandThumb2
                    {
                      OFFSET 4.705309 -1e-06 -1e-06
                      CHANNELS 3 Zrotation Yrotation Xrotation
                      JOINT LeftHandThumb3
                      {
                        OFFSET 2.798515 0.0 3e-06
                        CHANNELS 3 Zrotation Yrotation Xrotation
                        JOINT LeftHandThumbEnd
                        {
                          OFFSET 3.180793 4e-06 -4e-06
                          CHANNELS 3 Zrotation Yrotation Xrotation
                        }
                      }
                    }
                  }
                  JOINT LeftHandIndex1
                  {
                    OFFSET 3.247786 2.352677 0.137192
                    CHANNELS 3 Zrotation Yrotation Xrotation
                    JOINT LeftHandIndex2
                    {
                      OFFSET 6.367095 1e-06 0.0
                      CHANNELS 3 Zrotation Yrotation Xrotation
                      JOINT LeftHandIndex3
                      {
                        OFFSET 3.662364 0.0 0.0
                        CHANNELS 3 Zrotation Yrotation Xrotation
                        JOINT LeftHandIndex4
                        {
                          OFFSET 2.329242 4e-06 -4e-06
                          CHANNELS 3 Zrotation Yrotation Xrotation
                          JOINT LeftHandIndexEnd
                          {
                            OFFSET 2.767823 1e-06 0.0
                            CHANNELS 3 Zrotation Yrotation Xrotation
                          }
                        }
                      }
                    }
                  }
                  JOINT LeftHandMiddle1
                  {
                    OFFSET 3.163612 0.945023 -0.406112
                    CHANNELS 3 Zrotation Yrotation Xrotation
                    JOINT LeftHandMiddle2
                    {
                      OFFSET 6.276789 3e-06 0.0
                      CHANNELS 3 Zrotation Yrotation Xrotation
                      JOINT LeftHandMiddle3
                      {
                        OFFSET 4.35652 -1e-06 4e-06
                        CHANNELS 3 Zrotation Yrotation Xrotation
                        JOINT LeftHandMiddle4
                        {
                          OFFSET 2.996877 0.0 8e-06
                          CHANNELS 3 Zrotation Yrotation Xrotation
                          JOINT LeftHandMiddleEnd
                          {
                            OFFSET 2.323256 3e-06 -4e-06
                            CHANNELS 3 Zrotation Yrotation Xrotation
                          }
                        }
                      }
                    }
                  }
                  JOINT LeftHandRing1
                  {
                    OFFSET 2.882606 -0.309162 0.107445
                    CHANNELS 3 Zrotation Yrotation Xrotation
                    JOINT LeftHandRing2
                    {
                      OFFSET 6.033198 0.0 4e-06
                      CHANNELS 3 Zrotation Yrotation Xrotation
                      JOINT LeftHandRing3
                      {
                        OFFSET 4.350578 3e-06 0.0
                        CHANNELS 3 Zrotation Yrotation Xrotation
                        JOINT LeftHandRing4
                        {
                          OFFSET 2.651321 2e-06 -7e-06
                          CHANNELS 3 Zrotation Yrotation Xrotation
                          JOINT LeftHandRingEnd
                          {
                            OFFSET 1.937663 1e-06 -4e-06
                            CHANNELS 3 Zrotation Yrotation Xrotation
                          }
                        }
                      }
                    }
                  }
                  JOINT LeftHandPinky1
                  {
                    OFFSET 2.865315 -1.525436 0.575687
                    CHANNELS 3 Zrotation Yrotation Xrotation
                    JOINT LeftHandPinky2
                    {
                      OFFSET 5.54936 1e-06 -8e-06
                      CHANNELS 3 Zrotation Yrotation Xrotation
                      JOINT LeftHandPinky3
                      {
                        OFFSET 3.070974 0.0 -4e-06
                        CHANNELS 3 Zrotation Yrotation Xrotation
                        JOINT LeftHandPinky4
                        {
                          OFFSET 1.549672 1e-06 0.0
                          CHANNELS 3 Zrotation Yrotation Xrotation
                          JOINT LeftHandPinkyEnd
                          {
                            OFFSET 1.952123 0.0 0.0
                            CHANNELS 3 Zrotation Yrotation Xrotation
                          }
                        }
                      }
                    }
                  }
                }
              }
            }
          }
          JOINT RightShoulder
          {
            OFFSET 23.161716 5.296122 -1.380114
            CHANNELS 3 Zrotation Yrotation Xrotation
            JOINT RightArm
            {
              OFFSET -16.027195 -2e-06 1.1e-05
              CHANNELS 3 Zrotation Yrotation Xrotation
              JOINT RightForeArm
              {
                OFFSET -28.736639 4e-06 2e-06
                CHANNELS 3 Zrotation Yrotation Xrotation
                JOINT RightHand
                {
                  OFFSET -27.133619 6e-06 0.0
                  CHANNELS 3 Zrotation Yrotation Xrotation
                  JOINT RightHandThumb1
                  {
                    OFFSET -2.274328 -3.351035 -0.83067
                    CHANNELS 3 Zrotation Yrotation Xrotation
                    JOINT RightHandThumb2
                    {
                      OFFSET -4.703594 -3e-06 2e-06
                      CHANNELS 3 Zrotation Yrotation Xrotation
                      JOINT RightHandThumb3
                      {
                        OFFSET -2.794935 -4e-06 -3e-06
                        CHANNELS 3 Zrotation Yrotation Xrotation
                        JOINT RightHandThumbEnd
                        {
                          OFFSET -3.183852 4e-06 1e-06
                          CHANNELS 3 Zrotation Yrotation Xrotation
                        }
                      }
                    }
                  }
                  JOINT RightHandIndex1
                  {
                    OFFSET -3.253496 -2.33755 -0.127667
                    CHANNELS 3 Zrotation Yrotation Xrotation
                    JOINT RightHandIndex2
                    {
                      OFFSET -6.344434 0.0 0.0
                      CHANNELS 3 Zrotation Yrotation Xrotation
                      JOINT RightHandIndex3
                      {
                        OFFSET -3.654871 0.0 -8e-06
                        CHANNELS 3 Zrotation Yrotation Xrotation
                        JOINT RightHandIndex4
                        {
                          OFFSET -2.327586 -1e-06 0.0
                          CHANNELS 3 Zrotation Yrotation Xrotation
                          JOINT RightHandIndexEnd
                          {
                            OFFSET -2.770001 3e-06 8e-06
                            CHANNELS 3 Zrotation Yrotation Xrotation
                          }
                        }
                      }
                    }
                  }
                  JOINT RightHandMiddle1
                  {
                    OFFSET -3.168223 -0.944764 0.411762
                    CHANNELS 3 Zrotation Yrotation Xrotation
                    JOINT RightHandMiddle2
                    {
                      OFFSET -6.266691 -1e-06 -4e-06
                      CHANNELS 3 Zrotation Yrotation Xrotation
                      JOINT RightHandMiddle3
                      {
                        OFFSET -4.348901 0.0 0.0
                        CHANNELS 3 Zrotation Yrotation Xrotation
                        JOINT RightHandMiddle4
                        {
                          OFFSET -3.00024 2e-06 -4e-06
                          CHANNELS 3 Zrotation Yrotation Xrotation
                          JOINT RightHandMiddleEnd
                          {
                            OFFSET -2.321477 -4e-06 -4e-06
                            CHANNELS 3 Zrotation Yrotation Xrotation
                          }
                        }
                      }
                    }
                  }
                  JOINT RightHandRing1
                  {
                    OFFSET -2.885654 0.293261 -0.119232
                    CHANNELS 3 Zrotation Yrotation Xrotation
                    JOINT RightHandRing2
                    {
                      OFFSET -6.032835 -1e-06 -4e-06
                      CHANNELS 3 Zrotation Yrotation Xrotation
                      JOINT RightHandRing3
                      {
                        OFFSET -4.33881 0.0 -4e-06
                        CHANNELS 3 Zrotation Yrotation Xrotation
                        JOINT RightHandRing4
                        {
                          OFFSET -2.654903 -4e-06 -4e-06
                          CHANNELS 3 Zrotation Yrotation Xrotation
                          JOINT RightHandRingEnd
                          {
                            OFFSET -1.935122 0.0 4e-06
                            CHANNELS 3 Zrotation Yrotation Xrotation
                          }
                        }
                      }
                    }
                  }
                  JOINT RightHandPinky1
                  {
                    OFFSET -2.866241 1.503904 -0.60527
                    CHANNELS 3 Zrotation Yrotation Xrotation
                    JOINT RightHandPinky2
                    {
                      OFFSET -5.553177 -2e-06 0.0
                      CHANNELS 3 Zrotation Yrotation Xrotation
                      JOINT RightHandPinky3
                      {
                        OFFSET -3.062664 -1e-06 -4e-06
                        CHANNELS 3 Zrotation Yrotation Xrotation
                        JOINT RightHandPinky4
                        {
                          OFFSET -1.546529 2e-06 4e-06
                          CHANNELS 3 Zrotation Yrotation Xrotation
                          JOINT RightHandPinkyEnd
                          {
                            OFFSET -1.952341 0.0 -4e-06
                            CHANNELS 3 Zrotation Yrotation Xrotation
                          }
                        }
                      }
                    }
                  }
                }
              }
            }
          }
        }
      }
    }
    JOINT LeftLeg
    {
      OFFSET -8.443107 2.567604 10.043214
      CHANNELS 3 Zrotation Yrotation Xrotation
      JOINT LeftShin
      {
        OFFSET 43.229198 1e-06 -1e-06
        CHANNELS 3 Zrotation Yrotation Xrotation
        JOINT LeftFoot
        {
          OFFSET 42.298611 1e-06 1e-06
          CHANNELS 3 Zrotation Yrotation Xrotation
          JOINT LeftToeBase
          {
            OFFSET 14.165858 1e-06 0.0
            CHANNELS 3 Zrotation Yrotation Xrotation
            JOINT LeftToeEnd
            {
              OFFSET 6.7141 -0.234461 0.0
              CHANNELS 3 Zrotation Yrotation Xrotation
            }
          }
        }
      }
    }
    JOINT RightLeg
    {
      OFFSET -8.303923 2.592729 -10.047278
      CHANNELS 3 Zrotation Yrotation Xrotation
      JOINT RightShin
      {
        OFFSET -43.369682 0.0 1e-06
        CHANNELS 3 Zrotation Yrotation Xrotation
        JOINT RightFoot
        {
          OFFSET -42.260784 4e-06 2e-06
          CHANNELS 3 Zrotation Yrotation Xrotation
          JOINT RightToeBase
          {
            OFFSET -14.222245 -2e-06 -1e-06
            CHANNELS 3 Zrotation Yrotation Xrotation
            JOINT RightToeEnd
            {
              OFFSET -6.660062 0.232574 -2e-06
              CHANNELS 3 Zrotation Yrotation Xrotation
            }
          }
        }
      }
    }
  }
}
MOTION
Frames: 4
Frame Time: 0.03333333333333333
0.0 0.0 0.0 0.0 -0.0 0.0 0.826056 51.040058 -24.4478 90.680954 -4.423796 91.990456 -2.802599 -2.391159 0.235171 -11.455177 -1.347018 0.568889 14.330056 -0.355186 -2.274805 32.328312 4.213127 2.735765 -2.710017 -0.314729 -0.373154 -29.48103 0.39715 -0.898366 6e-06 -0.0 -0.0 -0.092371 0.019916 -0.031012 0.039308 0.031835 0.037652 -0.003486 0.007114 -0.093666 -104.273598 -71.884781 119.000954 35.849464 -61.474789 -1.630303 25.535234 -0.260294 0.107709 2.793695 -7.513702 2.760042 17.636631 -26.322725 52.411182 -19.46666 -14.395596 29.410385 0.0 -8.774821 -4e-06 15.936024 -18.118013 6.272903 -0.609777 -1.795653 -3.889329 -4.807088 -11.04681 -2.937849 5e-06 -20.976015 -0.0 -5.019972 -25.033552 -4.031878 7e-06 -2e-06 0.0 -10.634535 -5.68697 -3.565585 10.573274 -17.922947 -3.113901 4e-06 -13.821209 0.0 -0.501778 -31.181505 -4.027014 -12.286701 -60.2052 8.007665 -13.982714 -7.150198 -2.87504 13.77273 -8.401493 -3.218243 0.347735 -34.211544 0.771654 -0.963028 -17.73337 2.621019 1e-06 -0.0 -2e-06 -17.346415 -20.095215 -4.201781 21.757557 -1.638376 3.866426 1e-06 -6.338823 0.0 -1.697588 -22.591743 -6.194005 -1e-06 -4e-06 -2e-06 46.218544 -70.966072 148.262711 24.003086 -57.546345 10.253238 34.58437 -0.195957 0.301766 -11.590678 9.326319 -4.084911 22.182108 -20.375883 49.933308 -16.701811 -16.743525 28.476522 -4e-06 -12.690598 -0.0 16.814016 -17.490366 2.385978 -0.105921 -1.513858 -4.275881 -5.039039 -5.61287 -2.953556 4e-06 -11.020521 -2e-06 -6.111295 -15.89533 -3.840472 -0.0 -1e-06 1e-06 -10.283369 -5.680287 -4.341838 11.028295 -11.302406 -2.372634 -1.384268 -14.238581 -6.320121 -0.625436 -26.924189 -3.827603 -3.287927 -50.04332 -4.392091 -13.708524 -7.363475 -3.72094 18.141146 -14.052738 -3.242674 7e-06 -18.787266 -4e-06 -0.429712 -8.45604 2.555505 -0.0 -2e-06 2e-06 -15.923532 -20.094481 -5.473586 30.419207 -7.190825 1.735925 4e-06 -8.162925 -1e-06 -1.861899 -22.861465 -6.167942 -1e-06 -6e-06 -2e-06 179.200287 -7.637364 -3.369981 116.001862 -0.704734 -0.191455 -117.229034 8.149888 -10.517092 -17.942196 1.723678 2.531325 -0.999997 -0.0 0.0 -2.345161 -13.839217 3.302333 116.974861 -0.906382 -0.122733 -118.746529 12.561651 -14.867488 -24.662769 0.956281 1.547112 -1.000001 -0.0 0.0 
0.0 0.0 0.0 0.0 -0.0 0.0 0.761952 51.008499 -24.424822 90.666283 -4.516562 91.840813 -2.816391 -2.364233 0.22027 -11.477184 -1.303323 0.612914 14.239307 -0.338637 -2.338352 32.384495 4.037937 2.723509 -2.727185 -0.340449 -0.329389 -29.327797 0.445205 -0.909355 6e-06 -0.0 -0.0 -0.093585 0.018744 -0.016954 0.040744 0.030262 0.049364 7.7e-05 0.006358 -0.077437 -104.240089 -71.887657 118.871162 37.104866 -61.717514 -3.007754 25.325193 -0.260804 0.114664 2.897951 -7.699463 2.551685 17.636627 -26.322737 52.411205 -19.466663 -14.395598 29.410395 0.0 -8.774822 -2e-06 15.90747 -18.094631 6.285224 -0.609776 -1.795654 -3.889328 -4.80709 -11.046812 -2.93785 5e-06 -20.976019 -1e-06 -5.019973 -25.03356 -4.031879 6e-06 -2e-06 1e-06 -10.634535 -5.686972 -3.565588 10.573275 -17.922951 -3.113902 2e-06 -13.821209 0.0 -0.501777 -31.181505 -4.027016 -12.297653 -60.177814 8.027648 -13.982715 -7.150198 -2.875041 13.772731 -8.401492 -3.218244 0.347733 -34.211552 0.771657 -0.963028 -17.73337 2.621017 0.0 1e-06 -1e-06 -17.34642 -20.095217 -4.201783 21.757557 -1.638377 3.866428 1e-06 -6.338824 1e-06 -1.697588 -22.591742 -6.194006 -0.0 -3e-06 -2e-06 46.12775 -71.305748 148.176788 25.380331 -56.684067 9.312156 35.670643 -0.172855 0.256593 -11.76779 9.588148 -3.742684 22.182116 -20.375895 49.933315 -16.701813 -16.743528 28.47653 -3e-06 -12.6906 -1e-06 16.780851 -17.481577 2.390923 -0.10592 -1.513855 -4.275881 -5.039039 -5.612869 -2.953556 4e-06 -11.020523 -1e-06 -6.111295 -15.89533 -3.840472 0.0 0.0 -0.0 -10.283367 -5.680285 -4.341838 11.028292 -11.302404 -2.372633 -1.384268 -14.238579 -6.32012 -0.625437 -26.924185 -3.827601 -3.343965 -49.950573 -4.371059 -13.708523 -7.363473 -3.72094 18.141148 -14.052738 -3.242673 6e-06 -18.787266 -0.0 -0.429711 -8.456043 2.555503 1e-06 -2e-06 1e-06 -15.923534 -20.094479 -5.473584 30.419207 -7.190824 1.735925 3e-06 -8.162925 -1e-06 -1.861904 -22.861464 -6.167936 -1e-06 -2e-06 -1e-06 179.167206 -7.689947 -3.429603 115.959023 -0.695015 -0.189765 -117.214325 8.172062 -10.539213 -18.275791 1.733346 2.513317 -0.999996 -0.0 0.0 -2.48144 -13.700088 3.385258 117.028107 -0.947982 -0.142754 -118.752853 12.442315 -14.817469 -24.680637 0.95567 1.542247 -1.000003 -0.0 -0.0 
0.0 0.0 0.0 0.0 -0.0 0.0 0.676938 50.961864 -24.395678 90.671867 -4.581386 91.689873 -2.829385 -2.339867 0.201645 -11.497366 -1.267418 0.631305 14.150755 -0.291982 -2.382547 32.421974 3.902164 2.679789 -2.748299 -0.36261 -0.262634 -29.16345 0.399758 -0.861486 6e-06 -0.0 -0.0 -0.092411 0.018135 -0.010835 0.042804 0.030516 0.052021 -0.001762 0.005313 -0.068522 -103.969009 -71.946999 118.517632 38.205528 -61.992634 -4.247921 25.151106 -0.254375 0.135897 2.954887 -7.946037 2.462957 17.636631 -26.322721 52.411182 -19.46666 -14.395597 29.410385 -0.0 -8.774822 -3e-06 15.873903 -18.091036 6.296449 -0.609777 -1.795654 -3.889327 -4.80709 -11.04681 -2.937851 4e-06 -20.976013 -0.0 -5.019971 -25.033552 -4.031883 6e-06 -2e-06 1e-06 -10.634534 -5.686971 -3.565587 10.573271 -17.922947 -3.113899 1e-06 -13.821205 0.0 -0.501776 -31.181501 -4.027017 -12.273037 -60.141338 7.983439 -13.982712 -7.150197 -2.875041 13.772727 -8.401492 -3.21824 0.347734 -34.211544 0.771654 -0.963028 -17.733366 2.621018 1e-06 1e-06 -2e-06 -17.346416 -20.095213 -4.201779 21.757555 -1.638375 3.866426 1e-06 -6.338823 1e-06 -1.69759 -22.591738 -6.194005 0.0 -3e-06 -3e-06 46.026199 -71.617706 148.106445 26.769176 -55.909397 8.404152 36.744122 -0.13943 0.216869 -11.89572 9.676995 -3.371638 22.18211 -20.375891 49.933315 -16.701813 -16.743528 28.476528 -2e-06 -12.6906 -2e-06 16.745485 -17.470154 2.398702 -0.10592 -1.513859 -4.27588 -5.03904 -5.612868 -2.953556 5e-06 -11.020521 -2e-06 -6.111297 -15.895329 -3.840469 0.0 0.0 0.0 -10.283367 -5.680288 -4.341837 11.028294 -11.302404 -2.372633 -1.384267 -14.238578 -6.32012 -0.625438 -26.924179 -3.827601 -3.430726 -49.859985 -4.348032 -13.708523 -7.363475 -3.720939 18.141146 -14.052738 -3.242674 6e-06 -18.787268 -2e-06 -0.429711 -8.456043 2.555504 0.0 -3e-06 2e-06 -15.923536 -20.094482 -5.473583 30.41921 -7.190825 1.735926 2e-06 -8.162924 0.0 -1.861901 -22.861467 -6.167942 -0.0 -4e-06 -0.0 179.175827 -7.743182 -3.473584 115.902931 -0.683253 -0.193222 -117.18837 8.21778 -10.633571 -18.512758 1.739192 2.493118 -0.999996 -0.0 1e-06 -2.563897 -13.564994 3.471873 117.083488 -0.969521 -0.147646 -118.775925 12.307567 -14.730299 -24.52076 0.950289 1.544442 -1.000001 -0.0 0.0 
0.0 0.0 0.0 0.0 -0.0 0.0 0.57261 50.919365 -24.370523 90.703339 -4.602811 91.529083 -2.843768 -2.323257 0.176999 -11.50933 -1.239971 0.620092 14.069366 -0.224564 -2.407349 32.461521 3.78751 2.612569 -2.775073 -0.363102 -0.199723 -28.978867 0.293299 -0.732872 6e-06 -0.0 -0.0 -0.087678 0.018398 -0.01429 0.040857 0.033146 0.044118 -0.010145 0.003787 -0.068104 -103.500313 -72.039749 117.976456 39.140614 -62.272865 -5.341991 24.981638 -0.239147 0.157341 2.982346 -8.237192 2.37761 17.636633 -26.322733 52.411201 -19.466663 -14.395598 29.410395 1e-06 -8.774822 -2e-06 15.85953 -18.105553 6.300637 -0.609778 -1.795654 -3.88933 -4.80709 -11.046811 -2.93785 4e-06 -20.976019 -0.0 -5.019972 -25.03356 -4.031883 5e-06 -3e-06 0.0 -10.634537 -5.686972 -3.565588 10.573275 -17.922951 -3.1139 1e-06 -13.821208 1e-06 -0.501778 -31.181505 -4.027017 -12.205937 -60.112995 7.913129 -13.982718 -7.1502 -2.875043 13.772728 -8.401491 -3.21824 0.347732 -34.211544 0.771654 -0.963029 -17.733368 2.621018 0.0 0.0 -2e-06 -17.346422 -20.095219 -4.201783 21.757561 -1.638375 3.866429 1e-06 -6.338825 2e-06 -1.69759 -22.591743 -6.194006 -0.0 -4e-06 -1e-06 45.834175 -71.875786 148.133698 28.133907 -55.262882 7.528019 37.726662 -0.113733 0.183552 -12.005732 9.619258 -3.033791 22.182116 -20.375891 49.933319 -16.701811 -16.74353 28.476532 -2e-06 -12.6906 1e-06 16.702816 -17.444433 2.403855 -0.105919 -1.513855 -4.275884 -5.039042 -5.612869 -2.953555 3e-06 -11.020523 -1e-06 -6.111298 -15.89533 -3.840469 -0.0 0.0 0.0 -10.283371 -5.680288 -4.341839 11.028294 -11.302404 -2.372633 -1.384269 -14.238581 -6.32012 -0.62544 -26.924191 -3.827601 -3.531142 -49.758839 -4.311783 -13.708524 -7.363474 -3.720939 18.141148 -14.052737 -3.242675 4e-06 -18.787266 -0.0 -0.429712 -8.456043 2.555505 -0.0 -0.0 0.0 -15.923536 -20.094481 -5.473584 30.41921 -7.190824 1.735928 1e-06 -8.162925 -0.0 -1.861904 -22.861469 -6.167941 -1e-06 -1e-06 -0.0 179.226028 -7.786347 -3.519051 115.832863 -0.677178 -0.203328 -117.143631 8.278513 -10.78676 -18.613558 1.742543 2.478019 -0.999997 -0.0 0.0 -2.610889 -13.435206 3.570786 117.132797 -0.974825 -0.146329 -118.773224 12.156882 -14.619694 -24.261124 0.943426 1.546041 -1.000001 -0.0 -0.0 
